<?xml version="1.0" standalone="no"?>
<!DOCTYPE svg PUBLIC "-//W3C//DTD SVG 20010904//EN"
 "http://www.w3.org/TR/2001/REC-SVG-20010904/DTD/svg10.dtd">
<svg version="1.0" xmlns="http://www.w3.org/2000/svg"
 width="92.000000pt" height="92.000000pt" viewBox="0 0 92.000000 92.000000"
 preserveAspectRatio="xMidYMid meet">
<metadata>
Created by potrace 1.11, written by Peter Selinger 2001-2013
</metadata>
<g transform="translate(0.000000,92.000000) scale(0.100000,-0.100000)"
fill="#000000" stroke="none">
<path d="M318 800 c-75 -23 -149 -94 -198 -190 -17 -33 -35 -60 -42 -60 -6 0
-3 -9 7 -20 17 -19 19 -19 37 -3 13 11 15 19 7 24 -16 9 32 96 82 148 90 93
195 111 313 52 59 -29 83 -51 57 -51 -20 0 -75 -56 -92 -95 -22 -47 -24 -123
-6 -168 28 -66 121 -127 196 -127 84 0 180 71 201 150 37 137 -60 260 -204
260 -51 0 -68 5 -106 30 -78 52 -179 72 -252 50z m438 -169 c32 -20 64 -74 64
-110 0 -62 -54 -125 -116 -137 -48 -9 -79 2 -120 39 -65 59 -55 162 19 207 41
26 112 26 153 1z"/>
<path d="M160 504 c-78 -34 -120 -101 -120 -192 0 -139 131 -231 274 -191 72
20 146 119 146 195 0 70 -52 150 -121 185 -46 23 -129 25 -179 3z m174 -84
c82 -73 63 -191 -37 -229 -91 -35 -187 28 -187 122 0 81 58 137 142 137 38 0
54 -6 82 -30z"/>
</g>
</svg>
